<svg xmlns="http://www.w3.org/2000/svg" width="36" height="36" viewBox="0 0 36 36" fill="none">
<path d="M18 0C8.046 0 0 8.1 0 18C0 22.7739 1.89642 27.3523 5.27208 30.7279C6.94353 32.3994 8.92784 33.7253 11.1117 34.6298C13.2956 35.5344 15.6362 36 18 36C22.7739 36 27.3523 34.1036 30.7279 30.7279C34.1036 27.3523 36 22.7739 36 18C36 15.6362 35.5344 13.2956 34.6298 11.1117C33.7253 8.92784 32.3994 6.94353 30.7279 5.27208C29.0565 3.60062 27.0722 2.27475 24.8883 1.37017C22.7044 0.465584 20.3638 0 18 0ZM13.95 10.476C15.516 10.476 17.01 11.214 18 12.366C18.99 11.214 20.484 10.476 22.05 10.476C24.822 10.476 27 12.654 27 15.426C27 18.828 23.94 21.6 19.296 25.812L18 27L16.704 25.812C12.06 21.6 9 18.828 9 15.426C9 12.654 11.178 10.476 13.95 10.476Z" fill="#bd8dec"/>
</svg>