<svg xmlns="http://www.w3.org/2000/svg" width="14" height="15" viewBox="0 0 14 15" fill="none">
<path d="M11.6667 10.6077C11.0756 10.6077 10.5467 10.8338 10.1422 11.1878L4.59667 8.06128C4.63556 7.888 4.66667 7.71472 4.66667 7.5339C4.66667 7.35309 4.63556 7.17981 4.59667 7.00653L10.08 3.9101C10.5 4.28679 11.0522 4.52034 11.6667 4.52034C12.2855 4.52034 12.879 4.28222 13.3166 3.85835C13.7542 3.43449 14 2.85961 14 2.26017C14 1.66074 13.7542 1.08585 13.3166 0.661989C12.879 0.238124 12.2855 0 11.6667 0C11.0478 0 10.4543 0.238124 10.0168 0.661989C9.57917 1.08585 9.33333 1.66074 9.33333 2.26017C9.33333 2.44098 9.36444 2.61426 9.40333 2.78754L3.92 5.88398C3.5 5.50728 2.94778 5.27373 2.33333 5.27373C1.71449 5.27373 1.121 5.51186 0.683418 5.93572C0.245833 6.35958 0 6.93447 0 7.5339C0 8.13334 0.245833 8.70822 0.683418 9.13208C1.121 9.55595 1.71449 9.79407 2.33333 9.79407C2.94778 9.79407 3.5 9.56052 3.92 9.18383L9.45778 12.3104C9.41889 12.4686 9.39556 12.6344 9.39556 12.8076C9.39556 14.0206 10.4144 15 11.6667 15C12.9189 15 13.9378 14.0206 13.9378 12.8076C13.9378 12.2242 13.6985 11.6646 13.2726 11.2521C12.8467 10.8395 12.269 10.6077 11.6667 10.6077Z" fill="#bd8dec"/>
</svg>